<svg width="1920" height="382" viewBox="0 0 1920 382" fill="none" xmlns="http://www.w3.org/2000/svg">
<g clip-path="url(#clip0_59_4)">
<path d="M591.641 379.585L487.95 328.152L395.781 282.45C349.697 259.59 349.697 213.87 395.781 191.01L591.641 288.145C614.683 299.577 614.683 305.292 614.683 316.721V362.441C614.683 373.784 603.162 385.301 591.641 379.585Z" fill="url(#paint0_linear_59_4)"/>
<path d="M384.26 2.41388L487.951 53.8486L580.12 99.5504C626.203 122.41 626.203 168.13 580.12 190.99L384.26 93.8535C361.218 82.4237 361.218 76.7086 361.218 65.2786V19.5588C361.218 8.21679 372.739 -3.30109 384.26 2.41388Z" fill="url(#paint1_linear_59_4)"/>
<path d="M487.951 145.271C534.035 122.411 534.035 76.6916 487.951 53.8316L580.12 99.5517C626.203 122.411 626.203 168.131 580.12 190.992L487.951 236.711C441.866 259.572 441.866 305.292 487.951 328.152L395.781 282.432C349.697 259.572 349.697 213.851 395.781 190.992L487.951 145.271Z" fill="url(#paint2_linear_59_4)"/>
<path d="M487.948 145.271V236.711L580.117 190.991L487.948 145.271Z" fill="#00C6E4"/>
<path d="M487.95 145.271V236.711L395.78 190.991L487.95 145.271Z" fill="#7941E1"/>
</g>
<path d="M839.71 280.5H810.925L875.603 100.77H906.933L971.612 280.5H942.827L892.014 133.416H890.61L839.71 280.5ZM844.537 210.117H937.912V232.935H844.537V210.117ZM1043.75 283.133C1032.87 283.133 1023.16 280.354 1014.61 274.796C1006.13 269.179 999.46 261.193 994.604 250.838C989.807 240.423 987.408 227.932 987.408 213.365C987.408 198.797 989.836 186.335 994.692 175.979C999.607 165.624 1006.33 157.696 1014.88 152.197C1023.42 146.697 1033.1 143.947 1043.92 143.947C1052.29 143.947 1059.02 145.351 1064.11 148.16C1069.26 150.91 1073.24 154.127 1076.04 157.813C1078.91 161.499 1081.13 164.746 1082.71 167.554H1084.29V100.77H1110.53V280.5H1084.91V259.526H1082.71C1081.13 262.392 1078.85 265.669 1075.87 269.355C1072.94 273.041 1068.91 276.258 1063.76 279.008C1058.61 281.758 1051.94 283.133 1043.75 283.133ZM1049.54 260.754C1057.09 260.754 1063.47 258.765 1068.67 254.787C1073.94 250.75 1077.92 245.162 1080.61 238.025C1083.36 230.887 1084.73 222.579 1084.73 213.101C1084.73 203.74 1083.39 195.55 1080.7 188.529C1078 181.508 1074.06 176.038 1068.85 172.118C1063.64 168.198 1057.21 166.238 1049.54 166.238C1041.64 166.238 1035.06 168.286 1029.8 172.381C1024.53 176.477 1020.55 182.064 1017.86 189.143C1015.23 196.222 1013.91 204.208 1013.91 213.101C1013.91 222.111 1015.26 230.214 1017.95 237.41C1020.64 244.607 1024.62 250.311 1029.88 254.523C1035.21 258.677 1041.76 260.754 1049.54 260.754ZM1147.98 280.5V145.703H1173.17V167.642H1174.84C1177.65 160.212 1182.24 154.42 1188.62 150.266C1194.99 146.054 1202.63 143.947 1211.52 143.947C1220.53 143.947 1228.08 146.054 1234.16 150.266C1240.31 154.478 1244.84 160.27 1247.77 167.642H1249.17C1252.39 160.446 1257.51 154.712 1264.53 150.441C1271.55 146.112 1279.92 143.947 1289.63 143.947C1301.86 143.947 1311.83 147.779 1319.55 155.444C1327.33 163.108 1331.23 174.663 1331.23 190.108V280.5H1304.99V192.566C1304.99 183.439 1302.5 176.828 1297.53 172.732C1292.55 168.637 1286.61 166.589 1279.71 166.589C1271.17 166.589 1264.53 169.222 1259.79 174.487C1255.05 179.694 1252.68 186.393 1252.68 194.584V280.5H1226.53V190.898C1226.53 183.585 1224.25 177.705 1219.68 173.259C1215.12 168.812 1209.18 166.589 1201.87 166.589C1196.9 166.589 1192.3 167.905 1188.09 170.538C1183.94 173.113 1180.57 176.711 1178 181.333C1175.48 185.955 1174.22 191.308 1174.22 197.392V280.5H1147.98ZM1366.39 280.5V145.703H1392.63V280.5H1366.39ZM1379.65 124.904C1375.08 124.904 1371.16 123.383 1367.89 120.34C1364.67 117.239 1363.06 113.554 1363.06 109.283C1363.06 104.953 1364.67 101.267 1367.89 98.225C1371.16 95.1242 1375.08 93.5738 1379.65 93.5738C1384.21 93.5738 1388.1 95.1242 1391.32 98.225C1394.59 101.267 1396.23 104.953 1396.23 109.283C1396.23 113.554 1394.59 117.239 1391.32 120.34C1388.1 123.383 1384.21 124.904 1379.65 124.904ZM1454.18 200.464V280.5H1427.94V145.703H1453.12V167.642H1454.79C1457.89 160.505 1462.75 154.771 1469.36 150.441C1476.03 146.112 1484.42 143.947 1494.54 143.947C1503.73 143.947 1511.77 145.878 1518.68 149.739C1525.58 153.542 1530.93 159.217 1534.74 166.765C1538.54 174.312 1540.44 183.644 1540.44 194.76V280.5H1514.2V197.919C1514.2 188.149 1511.66 180.514 1506.57 175.014C1501.48 169.456 1494.49 166.677 1485.59 166.677C1479.51 166.677 1474.1 167.993 1469.36 170.626C1464.68 173.259 1460.96 177.12 1458.21 182.21C1455.52 187.242 1454.18 193.326 1454.18 200.464Z" fill="#01DFFD"/>
<defs>
<linearGradient id="paint0_linear_59_4" x1="578.194" y1="339.682" x2="386.949" y2="228.93" gradientUnits="userSpaceOnUse">
<stop stop-color="#02DFFE"/>
<stop offset="1" stop-color="#5E32AE"/>
</linearGradient>
<linearGradient id="paint1_linear_59_4" x1="397.706" y1="42.3174" x2="588.952" y2="153.07" gradientUnits="userSpaceOnUse">
<stop stop-color="#02DFFE"/>
<stop offset="1" stop-color="#5E32AE"/>
</linearGradient>
<linearGradient id="paint2_linear_59_4" x1="488.316" y1="191.789" x2="487.482" y2="192.269" gradientUnits="userSpaceOnUse">
<stop stop-color="#02DFFE"/>
<stop offset="1" stop-color="#5E32AE"/>
</linearGradient>
<clipPath id="clip0_59_4">
<rect width="253.465" height="380.198" fill="white" transform="translate(361.218 0.901001)"/>
</clipPath>
</defs>
</svg>
